<svg width="24" height="24" viewBox="0 0 24 24" fill="none" xmlns="http://www.w3.org/2000/svg">
<path opacity="0.4" d="M18.75 12C18.75 12.7956 19.0661 13.5587 19.6287 14.1213C20.1913 14.6839 20.9544 15 21.75 15V18C21.75 18.1989 21.671 18.3897 21.5303 18.5303C21.3897 18.671 21.1989 18.75 21 18.75H9V5.25H21C21.1989 5.25 21.3897 5.32902 21.5303 5.46967C21.671 5.61032 21.75 5.80109 21.75 6V9C20.9544 9 20.1913 9.31607 19.6287 9.87868C19.0661 10.4413 18.75 11.2044 18.75 12Z" fill="#657382"/>
<path d="M5 12C5 12.7956 4.68393 13.5587 4.12132 14.1213C3.55871 14.6839 2.79565 15 2 15V18C2 18.1989 2.07902 18.3897 2.21967 18.5303C2.36032 18.671 2.55109 18.75 2.75 18.75H9V5.25H2.75C2.55109 5.25 2.36032 5.32902 2.21967 5.46967C2.07902 5.61032 2 5.80109 2 6V9C2.79565 9 3.55871 9.31607 4.12132 9.87868C4.68393 10.4413 5 11.2044 5 12Z" fill="#637381"/>
</svg>
